<svg width="22" height="22" viewBox="0 0 22 22" fill="none" xmlns="http://www.w3.org/2000/svg">
<path d="M11 0C4.93429 0 0 4.93429 0 11C0 17.0657 4.93429 22 11 22C17.0657 22 22 17.0657 22 11C22 4.93429 17.0657 0 11 0ZM16.2721 15.1564C16.5786 15.4629 16.5786 15.9657 16.2721 16.2721C16.115 16.4214 15.9186 16.5 15.7143 16.5C15.51 16.5 15.3136 16.4214 15.1564 16.2721L11 12.1157L6.84357 16.2721C6.68643 16.4214 6.49 16.5 6.28571 16.5C6.08143 16.5 5.885 16.4214 5.72786 16.2721C5.42143 15.9657 5.42143 15.4629 5.72786 15.1564L9.88428 11L5.72786 6.84357C5.42143 6.53714 5.42143 6.03429 5.72786 5.72786C6.03429 5.42143 6.53714 5.42143 6.84357 5.72786L11 9.88428L15.1564 5.72786C15.4629 5.42143 15.9657 5.42143 16.2721 5.72786C16.5786 6.03429 16.5786 6.53714 16.2721 6.84357L12.1157 11L16.2721 15.1564Z" fill="#D21C5A"/>
</svg>

