<svg width="22" height="22" viewBox="0 0 22 22" fill="none" xmlns="http://www.w3.org/2000/svg">
<path fill-rule="evenodd" clip-rule="evenodd" d="M11 0C17.0715 0 22 4.9285 22 11C22 17.0715 17.0715 22 11 22C4.9285 22 0 17.0715 0 11C0 4.9285 4.9285 0 11 0ZM5.67198 11.491L8.81483 15.4196C8.95528 15.5944 9.16251 15.7005 9.38545 15.7123C9.6084 15.7251 9.82643 15.6416 9.98456 15.4844L17.056 8.41301C17.3624 8.10657 17.3624 7.60766 17.056 7.30122C16.7495 6.99478 16.2506 6.99478 15.9442 7.30122L9.49354 13.7519L6.8998 10.5089C6.62874 10.1701 6.13373 10.1151 5.7949 10.3862C5.45608 10.6573 5.40091 11.1522 5.67198 11.491Z" fill="#BBD3ED"/>
</svg>

