<svg width="22" height="22" viewBox="0 0 22 22" fill="none" xmlns="http://www.w3.org/2000/svg">
<path d="M9.13816 3.37574V1.86323C9.13816 1.35118 9.34772 0.884703 9.68529 0.547131C10.0229 0.20956 10.4876 0 11.0014 0C11.5134 0 11.9799 0.209557 12.3175 0.547131C12.6551 0.884703 12.8646 1.35029 12.8646 1.86323V3.37574C12.8646 3.75452 12.7094 4.09912 12.4595 4.34987L12.456 4.35338C12.2053 4.6024 11.8607 4.75759 11.4828 4.75759H10.5209C10.1404 4.75759 9.79489 4.60239 9.54412 4.3525C9.29422 4.1026 9.13903 3.75715 9.13903 3.37572L9.13816 3.37574ZM4.29288 6.92586L3.22317 5.85616C2.86017 5.49315 2.67867 5.01617 2.67867 4.53918C2.67867 4.06219 2.86016 3.58521 3.22317 3.22308C3.5853 2.86008 4.06316 2.67858 4.53927 2.67858C5.01626 2.67858 5.49324 2.86007 5.85625 3.22308L6.92595 4.29279C6.93823 4.30419 6.94875 4.31646 6.95927 4.32874C7.20654 4.59441 7.33015 4.93198 7.33015 5.26868C7.33015 5.62203 7.19513 5.97626 6.92594 6.24546L6.24642 6.92498C6.23502 6.93638 6.22275 6.9469 6.21047 6.95742C5.94567 7.20557 5.60722 7.32918 5.26877 7.32918C4.91542 7.32918 4.56207 7.19415 4.292 6.92496L4.29288 6.92586ZM3.37574 12.8618H1.86323C1.35118 12.8618 0.884703 12.6523 0.547131 12.3147C0.20956 11.9771 0 11.5115 0 10.9986C0 10.4865 0.209558 10.0201 0.547131 9.68248C0.884703 9.34491 1.35029 9.13535 1.86323 9.13535H3.37574C3.75715 9.13535 4.10262 9.29055 4.35252 9.54044C4.60329 9.79121 4.75761 10.1367 4.75761 10.5172V11.4791C4.75761 11.8579 4.60241 12.2025 4.35252 12.4532L4.34901 12.4567C4.09824 12.7058 3.75366 12.8609 3.37576 12.8609L3.37574 12.8618ZM6.92586 17.7071L5.85616 18.7768C5.49315 19.1398 5.01617 19.3213 4.53918 19.3213C4.06219 19.3213 3.58521 19.1398 3.22308 18.7768C2.86008 18.4147 2.67858 17.9368 2.67858 17.4607C2.67858 16.9837 2.86007 16.5067 3.22308 16.1437L4.29279 15.074C4.30419 15.0617 4.31646 15.0512 4.32874 15.0407C4.59441 14.7934 4.93198 14.6698 5.26868 14.6698C5.62203 14.6698 5.97626 14.8049 6.24546 15.074L6.92498 15.7536C6.93638 15.765 6.9469 15.7772 6.95742 15.7895C7.20557 16.0543 7.32918 16.3928 7.32918 16.7312C7.32918 17.0846 7.19415 17.4379 6.92496 17.708L6.92586 17.7071ZM12.8618 18.6242V20.1367C12.8618 20.6488 12.6523 21.1153 12.3147 21.4528C11.9771 21.7904 11.5115 22 10.9986 22C10.4865 22 10.0201 21.7904 9.68248 21.4528C9.34491 21.1153 9.13535 20.6497 9.13535 20.1367V18.6242C9.13535 18.2446 9.29055 17.9 9.54044 17.6501L9.5422 17.6484C9.79209 17.3976 10.1367 17.2433 10.5163 17.2433H11.4782C11.8587 17.2433 12.2042 17.3985 12.455 17.6484C12.7049 17.8983 12.8601 18.2437 12.8601 18.6251L12.8618 18.6242ZM18.6243 9.13704H20.1368C20.6488 9.13704 21.1153 9.34659 21.4529 9.68417C21.7904 10.0217 22 10.4864 22 11.0003C22 11.5123 21.7904 11.9788 21.4529 12.3164C21.1153 12.6539 20.6497 12.8635 20.1368 12.8635H18.6243C18.2429 12.8635 17.8974 12.7083 17.6475 12.4584C17.3967 12.2076 17.2424 11.8622 17.2424 11.4816V10.5198C17.2424 10.141 17.3976 9.7955 17.6475 9.54563L17.6492 9.54387C17.9 9.29398 18.2437 9.13879 18.6234 9.13879L18.6243 9.13704ZM15.0741 4.29086L16.1438 3.22115C16.5068 2.85815 16.9838 2.67665 17.4608 2.67665C17.9378 2.67665 18.4148 2.85814 18.7769 3.22115C19.1399 3.58328 19.3214 4.06114 19.3214 4.53725C19.3214 5.01424 19.1399 5.49122 18.7769 5.85423L17.7072 6.92393C17.438 7.19311 17.0838 7.32815 16.7304 7.32815C16.3771 7.32815 16.0229 7.19312 15.7537 6.92393L15.0741 6.24441C14.805 5.97524 14.6699 5.62101 14.6699 5.26763C14.6699 4.91603 14.805 4.56181 15.075 4.29173L15.0741 4.28998L15.0741 4.29086Z" fill="#FDBA30"/>
</svg>

