<svg width="44" height="44" viewBox="0 0 44 44" fill="none" xmlns="http://www.w3.org/2000/svg">
<mask id="mask0_2023_68272" style="mask-type:luminance" maskUnits="userSpaceOnUse" x="-1" y="-1" width="45" height="46">
<path d="M44 -0.00146522H-0.0113555V44.0079H44V-0.00146522Z" fill="white"/>
</mask>
<g mask="url(#mask0_2023_68272)">
<path d="M37.3484 37.7662C39.4084 35.7544 41.0548 33.3587 42.1946 30.7144L39.5529 29.3461L38.9588 29.039L37.9925 28.5389L37.6684 28.3708L37.7985 28.0317C38.6919 25.6907 39.0541 23.1805 38.8589 20.6824C38.6638 18.1843 37.9161 15.7607 36.6699 13.5869C35.4237 11.413 33.7101 9.54318 31.653 8.11244C29.596 6.68171 27.2467 5.72582 24.7751 5.31387L24.9252 8.58872C27.1021 9.06737 29.1307 10.0661 30.8377 11.4995C32.6038 12.9876 33.9664 14.8967 34.7998 17.0505C35.6332 19.2043 35.9104 21.5334 35.6059 23.8227C35.3195 25.9427 34.5442 27.9671 33.3413 29.7362L36.5111 31.3776L37.4774 31.8777L37.8775 32.0868L37.6244 32.4649C36.0497 34.8174 33.9645 36.7843 31.5241 38.219C29.0836 39.6536 26.3509 40.5192 23.5296 40.7511C20.7082 40.983 17.8708 40.5753 15.2289 39.5583C12.587 38.5413 10.2085 36.9413 8.27086 34.8775L5.54416 36.623C7.52159 38.8435 9.92822 40.6407 12.619 41.906C15.3097 43.1714 18.2288 43.8787 21.2003 43.9855C24.1718 44.0922 27.1341 43.5961 29.9087 42.5271C32.6833 41.458 35.2127 39.8382 37.3444 37.7652" fill="#F3F3F3"/>
<path d="M43.9991 21.7402C43.9608 18.6571 43.2752 15.6164 41.9868 12.8152C40.6985 10.014 38.836 7.51461 36.5201 5.47906C34.2042 3.44352 31.4865 1.91717 28.5431 0.998912C25.5997 0.08065 22.4962 -0.209048 19.4337 0.148585L19.5578 2.86929L19.5998 3.79252L19.6498 4.8778L19.6658 5.2389L19.3067 5.29691C18.734 5.3895 18.1665 5.51136 17.6063 5.66201C17.0447 5.8136 16.4912 5.99354 15.9478 6.20115H15.9418C11.7701 7.79657 8.39879 10.9772 6.56346 15.0491C4.72813 19.121 4.57781 23.7535 6.14531 27.9358L8.90702 26.1693C8.22521 24.0286 8.07898 21.7533 8.48117 19.5429C8.88337 17.3325 9.82169 15.2546 11.2139 13.4913C12.6061 11.7279 14.4096 10.3331 16.4663 9.42898C18.523 8.52489 20.7702 8.13919 23.0107 8.30569L22.8716 5.12987L22.8546 4.73977L22.8046 3.65349L22.7836 3.19937L23.2377 3.23038C26.0633 3.41517 28.8106 4.23587 31.2745 5.6312C33.7384 7.02653 35.8553 8.96044 37.4671 11.2885C39.0789 13.6166 40.1439 16.2787 40.5827 19.0761C41.0214 21.8735 40.8226 24.7339 40.001 27.4436L42.8738 28.932C43.6458 26.6139 44.0261 24.1833 43.9991 21.7402Z" fill="#F3F3F3"/>
<path d="M2.80643 32.769C3.26782 33.5936 3.78203 34.3874 4.34583 35.1457L7.10954 33.3772L7.41762 33.1771L8.33386 32.591L8.63894 32.3909L8.868 32.673C10.4487 34.6181 12.4419 36.1877 14.7035 37.2681C16.9651 38.3486 19.4385 38.9129 21.9449 38.9204C24.4513 38.9279 26.928 38.3782 29.196 37.3113C31.464 36.2443 33.4665 34.6867 35.0588 32.751L32.148 31.2437C30.6353 32.9049 28.7381 34.1697 26.6228 34.927C24.5074 35.6843 22.2386 35.911 20.0153 35.5872C17.7919 35.2634 15.682 34.3991 13.8705 33.0699C12.059 31.7408 10.6013 29.9875 9.62519 27.9638L6.61741 29.8883L5.70018 30.4745L5.31708 30.7195L5.11703 30.3104C4.98366 30.0437 4.86196 29.7816 4.75193 29.5242C4.6319 29.2491 4.52187 28.9791 4.42185 28.718C2.64152 24.0576 2.78513 18.8808 4.8211 14.3263C6.85707 9.77169 10.6187 6.21225 15.2786 4.43073C15.7308 4.25869 16.1859 4.10432 16.644 3.96761C16.9968 3.86225 17.3495 3.76823 17.7023 3.68554L17.5542 0.454707C17.0548 0.558067 16.5546 0.680099 16.0539 0.820802C15.4164 1.00018 14.7785 1.21124 14.1404 1.45397C11.1901 2.58409 8.51764 4.33595 6.30449 6.59054C4.09135 8.84514 2.38938 11.5496 1.31418 14.5204C0.238986 17.4911 -0.184243 20.6584 0.0732428 23.8072C0.330729 26.956 1.2629 30.0125 2.80643 32.769Z" fill="#F3F3F3"/>
<path d="M14.0884 26.4603H15.7888V16.7998H14.0884V26.4603ZM20.51 18.4973H22.7536V16.7968H16.431V18.4973H18.8146V26.4603H20.515L20.51 18.4973ZM31.3898 26.4603L28.389 18.0481C28.2657 17.6622 28.0131 17.3305 27.6739 17.1089C27.3193 16.9067 26.9182 16.8003 26.5101 16.8003C26.1019 16.8003 25.7008 16.9067 25.3462 17.1089C25.0068 17.3303 24.7542 17.662 24.6311 18.0481L21.6303 26.4603H23.4248L26.1445 18.7773C26.1688 18.6997 26.2173 18.6319 26.2829 18.5837C26.3485 18.5355 26.4277 18.5096 26.5091 18.5096C26.5904 18.5096 26.6697 18.5355 26.7352 18.5837C26.8008 18.6319 26.8493 18.6997 26.8736 18.7773L29.5933 26.4603H31.3898Z" fill="#F3F3F3"/>
</g>
</svg>

